<svg xmlns="http://www.w3.org/2000/svg" width="30" height="18" viewBox="0 0 30 18">
  <g id="american-express" transform="translate(0 -3)">
    <rect id="Retângulo_4935" data-name="Retângulo 4935" width="30" height="18" rx="4" transform="translate(0 3)" fill="#007ecd"/>
    <path id="Caminho_5894" data-name="Caminho 5894" d="M7.028,15h-1.1L5.49,13.862h-2L3.073,15H2L3.952,9.989h1.07ZM5.165,13.018l-.69-1.859L3.8,13.018ZM7.554,15V9.989H9.068l.909,3.418.9-3.418h1.517V15h-.94V11.056L10.46,15H9.485l-.991-3.944V15ZM13.4,15V9.989h3.715v.848h-2.7v1.111h2.516v.844H14.411v1.364h2.8V15Zm4.16,0,1.712-2.615-1.552-2.4H18.9l1,1.61.984-1.61h1.172L20.5,12.423,22.217,15H21l-1.111-1.733L18.772,15Z" transform="translate(3 -0.989)" fill="#fff"/>
  </g>
</svg>
