<svg xmlns="http://www.w3.org/2000/svg" width="30" height="18" viewBox="0 0 30 18">
  <g id="elo" transform="translate(0 -3)">
    <rect id="Retângulo_4937" data-name="Retângulo 4937" width="30" height="18" rx="4" transform="translate(0 3)" fill="#2d2d2d"/>
    <path id="Caminho_5898" data-name="Caminho 5898" d="M8.929,11.364,4.785,13.127c-.006-.071-.01-.142-.01-.214a2.38,2.38,0,0,1,4.154-1.549ZM7.149,8.818a4.139,4.139,0,0,1,4.033,3.133l-1.672.722v0L7.8,13.411,3.7,15.182A4.037,4.037,0,0,1,3,12.913,4.122,4.122,0,0,1,7.149,8.818Z" transform="translate(2.455)" fill="#fffffe" fill-rule="evenodd"/>
    <path id="Caminho_5899" data-name="Caminho 5899" d="M9.364,15.682a3.069,3.069,0,0,1-4.545.555l.857-1.646a1.8,1.8,0,0,0,2.6-.318Z" transform="translate(2.455)" fill="#fffffe" fill-rule="evenodd"/>
    <path id="Caminho_5900" data-name="Caminho 5900" d="M11.192,14.984,11.182,7h1.405v7.769a.161.161,0,0,0,.1.178l1.222.512L13.358,17l-1.432-.652C11.383,16.1,11.193,15.742,11.192,14.984Z" transform="translate(2.455)" fill="#fffffe" fill-rule="evenodd"/>
    <path id="Caminho_5901" data-name="Caminho 5901" d="M16.636,14.6a2.164,2.164,0,0,1-.178-3.4L15.5,9.727a3.829,3.829,0,0,0,.231,6.364Z" transform="translate(2.455)" fill="#2191c3" fill-rule="evenodd"/>
    <path id="Caminho_5902" data-name="Caminho 5902" d="M17.381,10.937a2.068,2.068,0,0,1,.777-.152,2.324,2.324,0,0,1,2.149,1.669l1.784-.167a4.174,4.174,0,0,0-3.933-3.469,3.653,3.653,0,0,0-1.522.333Z" transform="translate(2.455)" fill="#faec32" fill-rule="evenodd"/>
    <path id="Caminho_5903" data-name="Caminho 5903" d="M20.29,13.364a2.265,2.265,0,0,1-2.359,2.018,2.626,2.626,0,0,1-.575-.064l-.72,1.5A4.6,4.6,0,0,0,17.931,17a3.99,3.99,0,0,0,4.16-3.585Z" transform="translate(2.455)" fill="#d0362b" fill-rule="evenodd"/>
  </g>
</svg>
